<svg width="60" height="45" viewBox="0 0 60 45" fill="none" xmlns="http://www.w3.org/2000/svg">
<path fill-rule="evenodd" clip-rule="evenodd" d="M25.7472 0.14161C25.3088 0.370528 24.8826 0.962463 23.8968 2.71171C22.9681 4.35974 22.9525 4.38159 21.3244 6.32673C20.639 7.1456 19.8729 8.07848 19.6219 8.39986C19.2147 8.92118 19.1278 8.99378 18.8149 9.07396C18.3234 9.19997 17.9529 9.46501 17.2301 10.2074C16.585 10.8702 16.1475 11.5812 16.1475 11.9671C16.1475 12.2206 16.3373 12.4866 16.5181 12.4866C16.5974 12.4866 16.7906 12.4204 16.9474 12.3395C17.1042 12.2586 17.242 12.1922 17.2536 12.1921C17.2652 12.1919 16.9941 12.7697 16.6511 13.476C16.3081 14.1823 15.9837 14.8945 15.9302 15.0586C15.839 15.3379 15.8433 15.3685 15.9964 15.5333C16.2185 15.7725 16.9608 16.1646 17.1914 16.1646C17.3522 16.1646 17.4431 16.0536 17.8391 15.3738C18.0925 14.9389 18.3473 14.5831 18.4054 14.5831C18.4635 14.5831 18.6086 14.7715 18.7277 15.0018C18.8508 15.2399 19.0065 15.4371 19.0885 15.4588C19.3087 15.5171 20.1711 15.1836 20.5741 14.8844C20.7719 14.7375 21.115 14.3779 21.3365 14.0853C22.3197 12.786 22.4604 11.7184 21.8471 10.2123C21.5365 9.44941 21.3365 9.22182 20.8259 9.04969L20.4365 8.91838L21.1024 8.07274C22.0663 6.84893 22.7717 6.01962 23.1426 5.67425C23.5603 5.28534 24.4738 4.95911 25.1654 4.95175C25.5846 4.94734 25.6949 4.97904 26.1393 5.23201C26.613 5.50161 26.689 5.52096 27.5211 5.58297C29.0758 5.69882 29.542 5.77599 30.0754 6.00557C30.356 6.12628 31.1413 6.37969 31.8206 6.56859C33.5032 7.03651 33.7344 7.16457 35.3004 8.49593C36.8226 9.79007 37.1559 9.92306 39.7768 10.282C40.3933 10.3665 40.9909 10.4843 41.1048 10.5438C41.2186 10.6034 41.4598 10.8415 41.6408 11.0728C42.0026 11.5353 42.5467 12.5686 42.5467 12.7931C42.5467 12.8715 42.3667 13.3142 42.1467 13.7771C41.9267 14.2401 41.7467 14.6844 41.7467 14.7647C41.7467 15.0087 42.0535 15.1532 42.4899 15.1148C42.7011 15.0963 42.9426 15.0575 43.0265 15.0287C43.151 14.986 43.1963 15.0189 43.2739 15.2084C43.4175 15.5589 43.6333 15.6657 44.1623 15.6481C44.4137 15.6396 44.6636 15.6366 44.7176 15.6412C44.7716 15.6459 45.2463 16.0777 45.7725 16.6009C46.7898 17.6125 47.0442 17.784 47.2375 17.5885C47.3932 17.4309 47.3372 17.2818 46.8125 16.4588C46.5384 16.029 46.2106 15.3638 45.9606 14.7302C45.46 13.4614 45.4658 13.4725 44.9087 12.7073C44.6583 12.3634 44.2882 11.8007 44.0861 11.4568C43.2429 10.0213 43.0505 9.87532 40.8986 9.03726C38.8898 8.25495 38.243 7.92849 37.2378 7.18936C36.6815 6.78037 36.4687 6.70453 35.6246 6.61413C34.9091 6.53748 34.4723 6.33269 33.179 5.46741C32.3899 4.93939 31.9367 4.7157 31.1621 4.4717C30.6934 4.32414 30.5302 4.31399 28.9471 4.334L27.238 4.35562L26.681 4.0413C26.198 3.76877 26.0339 3.7169 25.4447 3.65033C25.0711 3.60818 24.7539 3.56199 24.7399 3.54779C24.7258 3.53359 24.8276 3.32947 24.9663 3.09415C25.1049 2.8589 25.3612 2.40673 25.536 2.08932C25.744 1.71159 25.9273 1.47385 26.0668 1.40088C26.408 1.22242 27.0271 1.20109 27.7109 1.34424C28.56 1.52196 29.4108 1.50894 30.2531 1.30525C31.3026 1.05154 32.1076 1.14945 33.9288 1.75249C34.4365 1.92058 35.0288 2.18017 35.3451 2.37319C36.0551 2.80653 36.4713 2.95843 37.4495 3.14108C37.893 3.22391 38.6241 3.35992 39.0741 3.44334C39.6296 3.54625 40.0906 3.68667 40.5104 3.88072C40.9487 4.08338 41.4491 4.23234 42.2306 4.39299C42.8367 4.51753 43.4961 4.66855 43.696 4.72857C44.2762 4.90283 44.9009 5.37222 45.2921 5.92752C45.9414 6.84944 47.0196 7.76512 48.216 8.41068C48.6844 8.66343 49.7171 9.66222 49.9965 10.1327C50.1046 10.3148 50.6603 10.9272 51.2315 11.4936C52.2409 12.4947 52.2818 12.5474 52.6985 13.3849C53.196 14.3846 53.2156 14.3162 52.3301 14.6726C51.7658 14.8997 51.1857 15.3088 50.6919 15.8278C50.5119 16.0171 50.0806 16.4188 49.7333 16.7206C48.9932 17.3639 48.8584 17.6024 48.468 18.9599C48.095 20.2561 48.0558 21.0548 48.3254 21.8655C48.433 22.1891 48.5728 22.5118 48.636 22.5827C48.788 22.753 48.9958 22.7461 49.0904 22.5673C49.1727 22.4117 49.3426 21.5254 49.4154 20.8724C49.4798 20.2944 49.7364 19.282 49.9323 18.8336C50.0535 18.5562 50.3844 18.1499 51.1273 17.3664C52.2289 16.2045 52.4799 15.9973 53.0518 15.7774C53.8355 15.476 55.251 15.4871 56.1941 15.8019C56.7255 15.9793 57.4194 16.5381 58.0627 17.3067C58.6493 18.0075 58.8355 18.4263 58.8364 19.047C58.8373 19.6701 58.7726 19.8358 58.3451 20.3065C58.1541 20.5166 57.8757 20.8732 57.7262 21.099C57.3368 21.6875 57.2048 21.7874 56.4736 22.0468C55.8022 22.2848 54.3282 22.8585 53.9144 23.0428C53.7869 23.0996 53.3942 23.184 53.0417 23.2302C52.2795 23.3303 51.9204 23.4765 51.3625 23.9141C51.1336 24.0936 50.881 24.26 50.801 24.284C50.721 24.3079 50.186 24.3614 49.612 24.4027C48.2251 24.5027 47.6323 24.6345 47.1142 24.9579C46.8604 25.1164 46.5295 25.2487 46.2754 25.2934C46.0445 25.334 45.6102 25.4471 45.3102 25.5448C44.1968 25.9072 41.6306 26.3343 40.999 26.2623C40.6179 26.2188 40.5664 26.1747 40.4427 25.7862C40.3319 25.4383 39.9653 25.1133 39.517 24.9657C38.9741 24.7868 38.0219 24.6905 37.5989 24.7715C37.1325 24.8611 37.0837 24.8892 36.4051 25.4598C36.0937 25.7217 35.5808 26.0793 35.2652 26.2546C34.2279 26.8308 34.256 26.8085 34.256 27.0535C34.256 27.2192 34.3438 27.3733 34.5894 27.639C35.1329 28.2266 34.9948 28.3715 33.7069 28.565C32.8797 28.6893 32.1786 28.9104 31.4704 29.2704C31.2051 29.4053 30.7533 29.5387 30.253 29.6298C29.186 29.8241 28.7187 30.0107 28.3443 30.3919C27.7316 31.0156 27.0483 31.2345 24.9882 31.4671C24.2307 31.5526 23.5238 31.6682 23.4172 31.7239C22.7916 32.0511 22.2942 33.1223 22.2586 34.2192C22.2574 34.2573 22.1396 34.0918 21.997 33.8514C21.4328 32.901 21.0678 32.6799 20.0746 32.6868C19.6709 32.6896 19.1872 32.7439 18.911 32.8173C17.8121 33.1098 16.6441 33.5476 16.2159 33.8275C15.9691 33.9889 15.7603 34.1108 15.7521 34.0986C15.7437 34.0864 15.6769 33.9109 15.6035 33.7086C15.433 33.2382 14.9371 32.7186 14.648 32.7074C14.0773 32.6852 13.8387 32.7835 13.2611 33.2785C13.0302 33.4764 12.8101 33.7541 12.6941 33.9939C12.5104 34.3739 12.5069 34.4059 12.5832 35.0266C12.6265 35.3789 12.6399 35.9121 12.6132 36.2115L12.5644 36.7557L12.3671 36.542C12.1247 36.2797 11.8861 36.2137 11.4103 36.2776C10.6494 36.3797 9.99106 36.7241 9.78444 37.1282C9.63921 37.4122 9.31595 39.0642 9.26169 39.7993C9.19064 40.7612 9.16352 40.7755 8.79793 40.043C8.17191 38.7886 7.94937 38.633 6.80228 38.6466C5.60769 38.6609 3.48797 38.9536 2.87345 39.1892C2.54502 39.315 2.3467 39.5405 2.2171 39.935C2.15259 40.1314 2.07405 40.2922 2.04263 40.2922C1.97609 40.2922 1.67355 39.832 1.54781 39.5397C1.38607 39.1636 1.29727 38.105 1.38956 37.6529C1.47334 37.2427 1.71937 36.6759 1.96947 36.317C2.20372 35.9808 2.38837 35.2692 2.47447 34.3706C2.6336 32.7091 2.95148 31.6929 3.63371 30.6651C3.78476 30.4375 3.96934 30.1437 4.04381 30.0122C4.11821 29.8807 4.19668 29.7741 4.21806 29.7754C4.23944 29.7765 4.37115 29.9793 4.51085 30.2258C4.82372 30.7782 5.37577 31.2958 5.72216 31.3616C6.0335 31.4207 6.81108 31.2372 7.22888 31.0061C7.43157 30.894 7.58443 30.7319 7.6981 30.5087C7.86283 30.1851 7.86559 30.1457 7.81934 28.7433C7.77919 27.5249 7.78945 27.2677 7.88719 27.0354C8.03402 26.6864 8.03264 26.5042 7.88195 26.3518C7.71367 26.1816 7.36961 26.2597 6.67079 26.6268C6.04615 26.955 5.92448 26.9391 6.03655 26.544C6.17757 26.0467 7.41659 24.54 8.54499 23.4938C9.28308 22.8094 10.7284 21.2796 11.7232 20.1297C11.9474 19.8706 12.3757 19.278 12.6752 18.8127C12.9746 18.3475 13.3483 17.8013 13.5057 17.599C14.7783 15.9632 15.0665 15.2998 14.4348 15.4601C14.1917 15.5218 11.9298 17.7464 10.8703 18.966C10.3928 19.5155 9.75128 20.2973 9.44467 20.7034C9.07523 21.1926 8.5087 21.7908 7.7653 22.4768C5.78209 24.307 5.10982 25.1318 4.49449 26.4902C3.86702 27.8755 2.8893 29.7454 2.66254 29.9938C1.70613 31.0416 1.49538 31.6225 1.35051 33.6105C1.29545 34.3657 1.21037 35.0608 1.16142 35.1553C1.11241 35.2497 0.913793 35.5298 0.719981 35.7777C0.031637 36.6583 -0.14334 37.355 0.110762 38.2024C0.170324 38.401 0.21985 38.6959 0.220722 38.8578C0.223486 39.3517 0.393445 39.8421 0.934302 40.9174C1.66475 42.3695 1.74904 42.6464 1.81064 43.7966C1.86671 44.8442 1.92424 45 2.25455 45C2.68451 45 2.80181 44.5756 2.98653 42.3518C3.07257 41.3161 3.21336 40.7224 3.42339 40.51C3.54019 40.3919 3.66811 40.3654 4.12963 40.3641C4.58372 40.3629 4.83346 40.3129 5.41446 40.1067C6.34869 39.7753 6.49807 39.7793 7.04867 40.1512C8.03969 40.8206 8.41379 41.6177 8.54753 43.3449C8.6343 44.465 8.88483 44.7934 9.43391 44.5066C9.8699 44.2789 10.0447 43.9031 10.0259 43.2346C10.015 42.8485 10.059 42.5062 10.1724 42.0944C10.2616 41.7707 10.4156 40.7942 10.5148 39.9244C10.6139 39.0545 10.7315 38.251 10.7763 38.1386C10.8688 37.9067 11.2356 37.613 11.3683 37.6646C11.5106 37.7199 12.0855 40.9783 12.1455 42.0692C12.2029 43.1121 12.2847 43.3081 12.662 43.3081C12.9668 43.3081 13.0869 43.2388 13.2185 42.9866C13.3193 42.7933 13.3421 42.4482 13.3609 40.8323C13.3791 39.2726 13.411 38.7665 13.5291 38.1603C13.6092 37.7491 13.6748 37.287 13.6748 37.1336C13.6748 36.9635 13.7331 36.7797 13.8244 36.6624C14.0482 36.3745 15.0746 35.8943 15.7475 35.7624C16.0675 35.6998 16.5002 35.6154 16.709 35.5749C17.0182 35.5148 17.1737 35.4236 17.5464 35.083L18.0042 34.6649L19.185 34.3763L20.3658 34.0878L20.5544 34.2659C20.8338 34.53 21.1022 35.0304 21.2163 35.5C21.2723 35.7305 21.332 36.4702 21.3504 37.162C21.3821 38.3501 21.3993 38.4692 21.7156 39.6998C22.0782 41.111 22.1804 41.3434 22.4228 41.3081C22.7807 41.256 22.8649 40.4545 22.6463 39.179L22.5249 38.4704L22.8597 37.3768C23.2844 35.9892 23.3307 35.8039 23.4965 34.8264C23.5715 34.3839 23.6827 33.9449 23.7435 33.8511C23.8043 33.7572 24.0101 33.5744 24.2007 33.4448C24.3913 33.3152 24.6454 33.1174 24.7654 33.0053C24.9701 32.814 25.044 32.7967 25.965 32.725C26.5048 32.683 26.9669 32.672 26.9918 32.7005C27.0167 32.729 27.1418 33.8116 27.2696 35.1062C27.5209 37.652 27.5705 37.975 27.7355 38.142C27.9143 38.3228 28.1976 38.1973 28.3664 37.8624C28.5473 37.5038 28.6366 36.6182 28.7161 34.3911L28.7732 32.7931L29.1144 32.288C29.5626 31.6246 29.9021 31.4343 30.9109 31.2811C31.7827 31.1486 32.0274 31.0504 32.8955 30.4839C33.9106 29.8215 34.1434 29.7251 35.0544 29.5895C36.4991 29.3744 37.3948 29.0606 38.2705 28.4628C38.9445 28.0028 40.1974 27.497 40.6713 27.4937C40.8 27.4928 41.321 28.2041 41.4632 28.5747C41.5064 28.6877 41.5485 29.227 41.5565 29.7731C41.5732 30.9002 41.6341 31.0972 41.9658 31.0972C42.1181 31.0972 42.2168 31.0399 42.3087 30.8979C42.4192 30.7271 42.4383 30.5148 42.442 29.4084C42.4462 28.1693 42.4538 28.1034 42.6342 27.7497C42.9779 27.0759 43.3182 26.8571 43.9285 26.917C44.2642 26.95 44.2906 27.0766 44.3428 28.9072C44.3799 30.2066 44.4061 30.4648 44.5199 30.6542C44.6586 30.8849 44.8483 30.9349 45.0892 30.8045C45.382 30.6461 45.4585 29.9083 45.2989 28.7839C45.2188 28.219 45.2238 28.1656 45.408 27.6276C45.5142 27.3174 45.6011 26.9655 45.6011 26.8458C45.6011 26.7261 45.6421 26.5943 45.6921 26.5531C45.7421 26.5118 46.1429 26.4056 46.5829 26.317C47.0229 26.2285 47.4554 26.1092 47.544 26.0521C47.8724 25.84 47.9116 25.8977 47.9597 26.6652C47.9844 27.0597 48.0568 27.8926 48.1206 28.5161C48.2008 29.2996 48.2221 29.9356 48.1896 30.5758C48.1331 31.6849 48.1867 31.8573 48.5984 31.8922C48.8224 31.9112 48.8861 31.882 48.9967 31.7103C49.113 31.5295 49.1264 31.3536 49.1115 30.1918C49.0965 29.0227 49.1115 28.8276 49.2472 28.4243C49.3543 28.1064 49.4161 27.6735 49.4543 26.9749C49.5292 25.6056 49.6294 25.4241 50.3646 25.3251C51.3925 25.1867 51.8336 25.0363 52.3285 24.6552C52.6558 24.4032 52.8779 24.3389 53.6857 24.2621C54.373 24.1966 54.4735 24.1651 55.2073 23.7845C55.6915 23.5334 56.1888 23.3358 56.5037 23.2694C57.536 23.0516 57.9081 22.7883 58.5214 21.8412C58.7485 21.4904 59.0976 21.0214 59.2973 20.7989C59.7888 20.251 59.9991 19.7768 60 19.2144C60.0017 18.1729 59.4293 16.7837 58.6032 15.8244C58.3952 15.5828 58.2295 15.3036 58.1823 15.1149C57.9067 14.0137 57.7511 13.762 56.7137 12.7393C55.9567 11.9931 55.7242 11.6151 55.495 10.758C55.1236 9.36842 54.4555 8.71359 51.8555 7.19039C49.9064 6.04853 49.4817 5.75723 49.0192 5.24525C47.4527 3.51101 46.9223 3.19794 44.7157 2.70517C44.156 2.58011 43.8884 2.47183 43.4067 2.17524C43.0737 1.97016 42.6778 1.75801 42.527 1.7038C42.3761 1.64958 41.5848 1.50371 40.7686 1.37969C39.2366 1.1468 38.7909 1.0294 38.1089 0.678964C37.2755 0.250699 36.4636 0.162428 32.7284 0.094017L30.4373 0.0520145L29.8194 0.240548C28.8182 0.546041 28.4534 0.551632 27.6047 0.27468C26.6191 -0.0469969 26.1701 -0.0791425 25.7472 0.14161ZM25.8926 7.32486C25.1026 7.5921 24.3031 8.07252 24.1421 8.37691C24.0098 8.62694 24.1837 8.92486 24.5731 9.11552C24.8286 9.24072 25.0436 9.2817 25.4563 9.2839C25.9626 9.28655 26.0033 9.27522 26.0243 9.12626C26.0368 9.03792 25.9931 8.86035 25.9272 8.73162C25.7759 8.43561 25.8472 8.35698 26.3065 8.31314C26.5696 8.28805 26.7823 8.3288 27.1653 8.47776C27.9109 8.76773 28.0225 8.79451 28.2023 8.7272C28.328 8.6802 28.3653 8.60818 28.3653 8.41266C28.3653 8.2036 28.3067 8.10695 28.0316 7.86207C27.3491 7.25432 26.6328 7.07446 25.8926 7.32486ZM33.548 10.7936C32.6649 11.0027 32.2129 12.2044 32.716 13.0055C33.1846 13.7516 35.0531 15.2073 35.7907 15.4008C36.1561 15.4967 36.1574 15.4965 37.785 15.1982C38.2824 15.107 38.5944 14.9031 38.6536 14.6306C38.7431 14.2182 38.3797 13.7649 37.446 13.1243C37.1804 12.9422 36.6241 12.5249 36.2096 12.1969C35.4622 11.6056 35.1937 11.4967 35.1433 11.7642C35.1167 11.9058 35.7574 12.814 36.3787 13.5154C36.6112 13.7778 36.8014 14.0158 36.8014 14.0442C36.8014 14.1449 36.1686 14.1901 35.8758 14.1104C35.3497 13.967 33.7674 12.7537 33.5358 12.316C33.4046 12.068 33.5176 11.7778 33.9036 11.3715C34.0574 11.2095 34.1828 11.0549 34.1822 11.0278C34.1774 10.8181 33.891 10.7124 33.548 10.7936ZM25.3108 11.3006C24.8026 11.3262 24.3318 11.387 24.2431 11.4383C23.9368 11.6156 23.266 12.5977 21.9749 14.759C21.3838 15.7483 21.2564 16.0818 21.3402 16.4195C21.4037 16.6755 21.5707 16.7434 22.3332 16.8232C22.7004 16.8617 23.0161 16.9085 23.0348 16.9274C23.0958 16.9891 22.8238 17.4897 22.5003 17.9111C22.1631 18.3504 22.133 18.4378 22.2709 18.5774C22.4831 18.792 23.1262 18.5729 23.6268 18.1156C24.057 17.7224 24.3449 17.2446 24.4013 16.8303C24.4835 16.2256 24.2699 16.0211 23.3952 15.8671C23.1289 15.8201 22.9109 15.7467 22.9109 15.704C22.9109 15.6613 23.1009 15.3254 23.3331 14.9576C23.5654 14.5898 23.9336 13.9981 24.1513 13.6428C24.369 13.2875 24.6876 12.8571 24.8594 12.6866L25.1714 12.3763H26.5737H27.9759L28.2483 12.5861C28.6752 12.9151 28.6973 13.0205 28.5544 14.0497C28.4856 14.5453 28.3799 15.173 28.3195 15.4445C28.2146 15.9153 28.1859 15.9592 27.6981 16.3966C27.4169 16.6488 26.9889 17.1219 26.7471 17.4478C26.2114 18.1699 24.6593 19.7421 23.9686 20.2622C23.4071 20.6852 21.1875 21.9576 20.6201 22.182C20.4201 22.2611 20.0889 22.3488 19.8842 22.3771C19.5428 22.4241 19.5001 22.4129 19.3674 22.2423C19.2878 22.14 19.1815 21.9071 19.131 21.7248C18.9527 21.0807 19.1501 20.8049 20.1655 20.2802C21.1611 19.7657 21.3109 19.6535 21.3109 19.4223C21.3109 19.2332 21.3098 19.2328 20.82 19.2745C20.1782 19.3291 19.0148 19.7097 18.5731 20.0096C18.0748 20.3479 17.8956 20.7051 17.894 21.3625C17.8915 22.5046 18.2327 23.5373 18.692 23.7776C19.4736 24.1864 21.681 23.4469 23.42 22.1937C24.0606 21.732 25.2252 20.7773 26.6716 19.528C27.0606 19.192 27.4273 18.7823 27.7236 18.3528C28.0437 17.8887 28.2977 17.6109 28.5809 17.4153C28.8023 17.2624 29.0552 17.059 29.1429 16.9633C29.6271 16.4352 29.9095 15.1313 29.9216 13.3693C29.9315 11.9186 29.8274 11.735 28.8293 11.4432C28.2639 11.2778 26.8778 11.2217 25.3108 11.3006ZM41.4194 17.5322C39.0017 18.4903 38.4704 18.6191 36.9105 18.6247C36.2705 18.6269 35.3316 18.6123 34.8239 18.5921C33.8326 18.5526 33.6299 18.6072 33.792 18.87C34.0626 19.3084 37.1595 19.657 38.7264 19.4254C39.4762 19.3146 40.3702 19.0606 41.4386 18.6549C42.2345 18.3526 42.5493 18.3076 42.6878 18.4764C42.9155 18.7539 42.1255 19.5424 41.1335 20.028C40.0656 20.5507 38.9835 20.7995 37.114 20.9522C35.9307 21.0488 33.2496 21.0045 32.4015 20.8744C31.3165 20.7079 30.6577 20.3551 30.3782 19.7909C30.0095 19.047 29.9516 18.5165 30.2393 18.5201C30.3086 18.5209 30.6404 18.6033 30.9768 18.7031C31.8365 18.9583 32.4463 19.0144 32.6059 18.853C32.839 18.6172 32.7357 18.4916 32.0903 18.226C30.5216 17.5803 29.4847 17.3811 29.173 17.6659C28.8343 17.9751 28.803 18.768 29.0883 19.8091C29.1654 20.0905 29.2485 20.3735 29.273 20.4381C29.307 20.5274 29.151 20.6505 28.6211 20.953C27.787 21.429 27.1775 22.0098 27.1775 22.3285C27.1775 22.7045 28.0878 24.0463 28.5867 24.4056C29.0133 24.7129 29.488 24.5807 30.1264 23.9768C30.7125 23.4222 31.1323 22.7261 31.1998 22.1965C31.2288 21.97 31.2735 21.8724 31.3413 21.8874C31.396 21.8995 31.755 21.9563 32.1392 22.0138C35.9319 22.5811 40.3842 22.1683 42.0223 21.0974C42.5361 20.7615 43.3264 19.9705 43.6804 19.438C43.9498 19.0326 44.0435 18.699 43.9704 18.4045C43.9135 18.1749 43.3246 17.519 43.0435 17.3719C42.6996 17.192 42.1382 17.2474 41.4194 17.5322ZM41.7725 22.3728C41.6583 22.5102 41.4831 22.7619 41.3831 22.932C41.2831 23.1022 41.0786 23.3401 40.9286 23.4607C40.4115 23.8766 40.6105 24.2468 41.5649 24.644C43.1585 25.3074 43.4766 25.1809 42.976 24.0824C42.7887 23.6716 42.7323 23.4383 42.707 22.9714C42.6703 22.293 42.5718 22.1229 42.2157 22.1229C42.0369 22.1229 41.9298 22.1833 41.7725 22.3728ZM11.3773 22.8232C10.6422 23.1495 10.3638 24.106 10.4157 26.1258C10.4396 27.0544 10.4689 27.2893 10.5955 27.5664C10.7833 27.9768 12.0157 29.21 12.4011 29.3728C12.9354 29.5987 13.2945 29.2277 13.3576 28.3847C13.3747 28.1571 13.363 27.2758 13.3317 26.4262L13.2748 24.8814H13.0974C12.9436 24.8814 12.9022 24.9404 12.7876 25.3228C12.715 25.5655 12.5755 26.157 12.4778 26.6371C12.3801 27.1173 12.282 27.5284 12.2599 27.5508C12.1876 27.6239 11.8616 27.2551 11.6937 26.9105C11.552 26.6196 11.5294 26.4571 11.5294 25.7274C11.5294 24.7086 11.6135 23.951 11.7469 23.7667C11.8297 23.6525 11.9471 23.6309 12.4873 23.6308L13.1294 23.6308L13.1528 23.4241C13.1813 23.1731 13.0795 23.0393 12.719 22.8532C12.395 22.686 11.7203 22.671 11.3773 22.8232ZM23.7258 23.4392C22.6476 23.8159 22.3877 24.6939 23.4207 24.4699C23.9384 24.3575 24.2378 24.431 24.5017 24.735C24.7833 25.0594 24.8468 25.4147 24.7379 26.0574C24.6206 26.75 24.3302 27.2575 23.9281 27.4726C23.3806 27.7655 22.9243 27.6686 22.4889 27.1671C22.2328 26.8721 22.1756 26.6291 22.2017 25.948C22.2194 25.4878 22.2135 25.4699 22.0462 25.4699C21.6464 25.4699 21.1655 26.4605 21.1655 27.2838C21.1655 27.8505 21.3432 28.2481 21.8002 28.7038C22.5655 29.4669 23.9546 29.5559 24.8943 28.9019C25.7468 28.3086 26.3085 27.3129 26.4412 26.1601C26.5704 25.0371 25.9352 23.7999 25.0543 23.4589C24.5569 23.2664 24.2341 23.2616 23.7258 23.4392ZM18.4383 25.2758C18.3183 25.3507 18.1578 25.483 18.0816 25.5697C18.0054 25.6565 17.8581 25.7276 17.7543 25.7278C16.9334 25.7296 16.3587 26.3133 15.7794 27.7336C15.5759 28.2326 15.5227 28.4413 15.5741 28.5385C15.7104 28.7962 16.132 28.6703 16.9801 28.1186C17.1821 27.9873 17.5607 27.7622 17.8213 27.6187C18.7867 27.087 19.2746 26.4688 19.2746 25.7777C19.2746 25.1998 18.9101 24.981 18.4383 25.2758ZM9.01159 32.3879C8.76025 32.8145 8.41234 33.3324 8.23831 33.5386C8.00879 33.8105 7.92792 33.9663 7.94384 34.1053C7.98173 34.4352 8.28085 34.397 9.05465 33.9634C9.80495 33.543 10.2849 33.1256 10.3584 32.8296C10.4756 32.3575 10.0567 31.6121 9.67434 31.6121C9.4902 31.6121 9.42016 31.6942 9.01159 32.3879ZM3.2474 34.3977C3.17918 34.474 3.04319 34.9235 2.94173 35.4079C2.84123 35.8879 2.6728 36.4749 2.56749 36.7123C2.35302 37.1956 2.38968 37.37 2.71396 37.4094C2.98864 37.4427 3.24951 37.2792 3.82331 36.7136C4.10461 36.4365 4.45638 36.1172 4.60496 36.0042C4.78226 35.8693 4.87506 35.7394 4.87506 35.6261C4.87506 35.2079 3.94389 34.2603 3.53299 34.2603C3.44354 34.2603 3.31503 34.3221 3.2474 34.3977Z" fill="#fe5f1e"/>
</svg>
